<svg width="30" height="17" viewBox="0 0 30 17" fill="none" xmlns="http://www.w3.org/2000/svg">
<path d="M15.6911 0.292195C15.491 0.097194 15.2607 0 15.0002 0C14.7397 0 14.509 0.0975009 14.3088 0.292195L0.300708 13.9039C0.100025 14.0986 0 14.3226 0 14.5761C0 14.829 0.100341 15.053 0.300708 15.2476L1.8034 16.7082C2.00377 16.9029 2.23435 16.9996 2.49484 16.9996C2.75533 16.9996 2.98591 16.9023 3.18628 16.7082L15.0002 5.2282L26.8146 16.7082C27.0148 16.9029 27.2455 17 27.5056 17C27.7665 17 27.9971 16.903 28.1973 16.7082L29.7002 15.2476C29.9005 15.053 30 14.8289 30 14.5761C30 14.3226 29.8999 14.0986 29.7002 13.9039L15.6911 0.292195Z" fill="#CF79BB"/>
</svg>
